<svg data-v-423bf9ae="" xmlns="http://www.w3.org/2000/svg" viewBox="0 0 240.29893109733234 60" class="font"><!----><!----><!----><g data-v-423bf9ae="" id="c3b2605f-5660-4c70-8520-bdb7dfd6ab25" fill="white" transform="matrix(4.270462865345523,0,0,4.270462865345523,-2.0925265940801268,-12.213524841893658)"><path d="M0.49 8.79L0.49 8.79Q0.49 7.31 1.01 6.13L1.01 6.13L1.01 6.13Q1.53 4.94 2.57 4.25L2.57 4.25L2.57 4.25Q3.61 3.56 5.12 3.56L5.12 3.56L5.12 3.56Q6.64 3.56 7.68 4.25L7.68 4.25L7.68 4.25Q8.72 4.94 9.25 6.13L9.25 6.13L9.25 6.13Q9.77 7.31 9.77 8.79L9.77 8.79L9.77 8.79Q9.77 10.21 9.30 11.35L9.30 11.35L9.30 11.35Q8.82 12.49 7.90 13.16L7.90 13.16L8.60 14.71L8.60 14.71Q8.85 15.27 9.20 15.53L9.20 15.53L9.20 15.53Q9.55 15.79 10.07 15.79L10.07 15.79L10.07 15.79Q10.35 15.79 10.57 15.70L10.57 15.70L10.57 15.70Q10.79 15.61 10.84 15.61L10.84 15.61L10.84 15.61Q10.89 15.61 10.93 15.65L10.93 15.65L10.93 15.65Q10.96 15.69 10.96 15.75L10.96 15.75L10.96 15.75Q10.96 16.25 10.57 16.58L10.57 16.58L10.57 16.58Q10.18 16.91 9.66 16.91L9.66 16.91L9.66 16.91Q8.85 16.91 8.31 16.37L8.31 16.37L8.31 16.37Q7.77 15.83 7.36 14.92L7.36 14.92L6.82 13.73L6.82 13.73Q6.02 14 5.12 14L5.12 14L5.12 14Q3.61 14 2.57 13.31L2.57 13.31L2.57 13.31Q1.53 12.63 1.01 11.45L1.01 11.45L1.01 11.45Q0.49 10.28 0.49 8.79L0.49 8.79ZM8.25 8.83L8.25 8.83Q8.25 7.83 7.96 6.80L7.96 6.80L7.96 6.80Q7.67 5.77 6.99 5.06L6.99 5.06L6.99 5.06Q6.30 4.35 5.19 4.35L5.19 4.35L5.19 4.35Q4.20 4.35 3.48 4.96L3.48 4.96L3.48 4.96Q2.76 5.57 2.38 6.61L2.38 6.61L2.38 6.61Q2.00 7.64 2.00 8.90L2.00 8.90L2.00 8.90Q2.00 9.86 2.21 10.65L2.21 10.65L2.21 10.65Q2.42 11.45 2.84 12.03L2.84 12.03L2.84 12.03Q2.81 11.93 2.81 11.75L2.81 11.75L2.81 11.75Q2.81 11.05 3.29 10.65L3.29 10.65L3.29 10.65Q3.77 10.25 4.58 10.25L4.58 10.25L4.58 10.25Q5.35 10.25 6.04 10.69L6.04 10.69L6.04 10.69Q6.73 11.13 7.31 12.04L7.31 12.04L7.31 12.04Q7.76 11.44 8.00 10.61L8.00 10.61L8.00 10.61Q8.25 9.79 8.25 8.83L8.25 8.83ZM3.42 11.94L3.42 11.94Q3.42 12.56 3.90 12.87L3.90 12.87L3.90 12.87Q4.38 13.17 5.07 13.17L5.07 13.17L5.07 13.17Q5.80 13.17 6.41 12.82L6.41 12.82L6.41 12.82Q5.96 11.91 5.41 11.49L5.41 11.49L5.41 11.49Q4.86 11.06 4.34 11.06L4.34 11.06L4.34 11.06Q3.93 11.06 3.68 11.30L3.68 11.30L3.68 11.30Q3.42 11.54 3.42 11.94L3.42 11.94ZM17.47 12.57L17.47 12.57Q17.47 13.01 17.88 13.01L17.88 13.01L17.88 13.01Q18.20 13.01 18.56 12.75L18.56 12.75L18.83 13.12L18.83 13.12Q18.51 13.51 18.08 13.76L18.08 13.76L18.08 13.76Q17.65 14 17.29 14L17.29 14L17.29 14Q16.73 14 16.47 13.68L16.47 13.68L16.47 13.68Q16.21 13.36 16.21 12.66L16.21 12.66L16.21 12.66Q15.89 13.27 15.25 13.64L15.25 13.64L15.25 13.64Q14.62 14 13.85 14L13.85 14L13.85 14Q12.84 14 12.27 13.39L12.27 13.39L12.27 13.39Q11.70 12.78 11.70 11.68L11.70 11.68L11.70 8.18L11.70 8.18Q11.70 7.87 11.42 7.87L11.42 7.87L10.81 7.87L10.68 7.50L10.68 7.50Q11.05 7.14 11.57 6.90L11.57 6.90L11.57 6.90Q12.10 6.66 12.53 6.66L12.53 6.66L12.53 6.66Q12.73 6.66 12.85 6.79L12.85 6.79L12.85 6.79Q12.98 6.92 12.98 7.11L12.98 7.11L12.98 11.35L12.98 11.35Q12.98 12.19 13.32 12.63L13.32 12.63L13.32 12.63Q13.66 13.06 14.32 13.06L14.32 13.06L14.32 13.06Q15.26 13.06 15.79 12.25L15.79 12.25L15.79 12.25Q16.31 11.44 16.31 10.01L16.31 10.01L16.31 10.01Q16.31 8.97 16.19 8.39L16.19 8.39L16.19 8.39Q16.07 7.81 15.76 7.28L15.76 7.28L15.60 7.06L15.76 6.85L17.47 6.66L17.47 12.57ZM20.40 4.59L20.40 4.59Q20.40 4.33 20.70 4.00L20.70 4.00L20.70 4.00Q21 3.67 21.25 3.67L21.25 3.67L21.25 3.67Q21.52 3.67 21.83 3.99L21.83 3.99L21.83 3.99Q22.13 4.31 22.13 4.59L22.13 4.59L22.13 4.59Q22.13 4.86 21.83 5.18L21.83 5.18L21.83 5.18Q21.52 5.50 21.25 5.50L21.25 5.50L21.25 5.50Q21.01 5.50 20.71 5.18L20.71 5.18L20.71 5.18Q20.40 4.86 20.40 4.59L20.40 4.59ZM21.88 12.57L21.88 12.57Q21.88 13.05 22.30 13.05L22.30 13.05L22.30 13.05Q22.65 13.05 23.00 12.75L23.00 12.75L23.27 13.12L23.27 13.12Q22.90 13.52 22.48 13.76L22.48 13.76L22.48 13.76Q22.06 14 21.70 14L21.70 14L21.70 14Q21.13 14 20.87 13.65L20.87 13.65L20.87 13.65Q20.62 13.30 20.62 12.52L20.62 12.52L20.62 8.18L20.62 8.18Q20.62 8.01 20.56 7.94L20.56 7.94L20.56 7.94Q20.50 7.87 20.34 7.87L20.34 7.87L19.73 7.87L19.60 7.50L19.60 7.50Q20.01 7.14 20.52 6.90L20.52 6.90L20.52 6.90Q21.04 6.66 21.45 6.66L21.45 6.66L21.45 6.66Q21.64 6.66 21.77 6.79L21.77 6.79L21.77 6.79Q21.90 6.92 21.90 7.11L21.90 7.11L21.88 12.57ZM29.57 12.36L29.57 12.36Q29.61 12.32 29.69 12.32L29.69 12.32L29.69 12.32Q29.81 12.32 29.93 12.45L29.93 12.45L29.93 12.45Q30.04 12.57 30.04 12.71L30.04 12.71L30.04 12.71Q30.04 12.80 30.00 12.84L30.00 12.84L30.00 12.84Q29.51 13.40 28.86 13.70L28.86 13.70L28.86 13.70Q28.21 14 27.48 14L27.48 14L27.48 14Q26.52 14 25.75 13.53L25.75 13.53L25.75 13.53Q24.98 13.06 24.54 12.23L24.54 12.23L24.54 12.23Q24.11 11.40 24.11 10.35L24.11 10.35L24.11 10.35Q24.11 9.24 24.53 8.41L24.53 8.41L24.53 8.41Q24.95 7.57 25.71 7.12L25.71 7.12L25.71 7.12Q26.47 6.66 27.50 6.66L27.50 6.66L27.50 6.66Q28.57 6.66 29.27 7.19L29.27 7.19L29.27 7.19Q29.96 7.71 29.96 8.54L29.96 8.54L29.96 8.54Q29.96 9.14 29.58 9.53L29.58 9.53L29.58 9.53Q29.19 9.91 28.59 9.91L28.59 9.91L28.59 9.91Q28.32 9.91 28.32 9.76L28.32 9.76L28.32 9.76Q28.32 9.72 28.42 9.56L28.42 9.56L28.42 9.56Q28.52 9.41 28.59 9.18L28.59 9.18L28.59 9.18Q28.66 8.96 28.66 8.61L28.66 8.61L28.66 8.61Q28.66 8.05 28.30 7.72L28.30 7.72L28.30 7.72Q27.94 7.39 27.34 7.39L27.34 7.39L27.34 7.39Q26.54 7.39 26.05 8.18L26.05 8.18L26.05 8.18Q25.56 8.96 25.56 10.23L25.56 10.23L25.56 10.23Q25.56 11.54 26.15 12.30L26.15 12.30L26.15 12.30Q26.73 13.06 27.72 13.06L27.72 13.06L27.72 13.06Q28.73 13.06 29.57 12.36L29.57 12.36ZM34.27 10.54L34.15 10.50L34.15 10.50Q33.88 10.43 33.88 10.21L33.88 10.21L33.88 10.21Q33.88 10.09 33.93 10.02L33.93 10.02L33.93 10.02Q33.98 9.94 34.09 9.94L34.09 9.94L34.09 9.94Q34.13 9.94 34.37 10.00L34.37 10.00L34.37 10.00Q34.61 10.07 34.99 10.07L34.99 10.07L34.99 10.07Q35.50 10.07 35.87 9.86L35.87 9.86L35.87 9.86Q36.23 9.65 36.41 9.31L36.41 9.31L36.41 9.31Q36.60 8.97 36.60 8.62L36.60 8.62L36.60 8.62Q36.60 8.20 36.35 7.92L36.35 7.92L36.35 7.92Q36.11 7.63 35.66 7.63L35.66 7.63L35.66 7.63Q34.97 7.63 34.45 8.12L34.45 8.12L34.45 8.12Q33.94 8.61 33.66 9.51L33.66 9.51L33.66 9.51Q33.39 10.40 33.39 11.56L33.39 11.56L33.39 11.56Q33.39 12.24 33.49 12.63L33.49 12.63L33.49 12.63Q33.59 13.03 33.84 13.37L33.84 13.37L34.01 13.59L33.84 13.80L31.39 13.80L31.23 13.37L31.53 13.30L31.53 13.30Q31.88 13.22 32.00 13.00L32.00 13.00L32.00 13.00Q32.12 12.78 32.12 12.25L32.12 12.25L32.12 4.37L32.12 4.37Q32.12 4.20 32.05 4.13L32.05 4.13L32.05 4.13Q31.99 4.06 31.84 4.06L31.84 4.06L31.22 4.06L31.09 3.70L31.09 3.70Q31.50 3.33 32.03 3.09L32.03 3.09L32.03 3.09Q32.55 2.86 32.94 2.86L32.94 2.86L32.94 2.86Q33.14 2.86 33.26 2.98L33.26 2.98L33.26 2.98Q33.39 3.11 33.39 3.30L33.39 3.30L33.39 8.75L33.39 8.75Q33.74 7.83 34.45 7.25L34.45 7.25L34.45 7.25Q35.15 6.66 35.92 6.66L35.92 6.66L35.92 6.66Q36.85 6.66 37.35 7.20L37.35 7.20L37.35 7.20Q37.86 7.73 37.86 8.50L37.86 8.50L37.86 8.50Q37.86 8.99 37.61 9.46L37.61 9.46L37.61 9.46Q37.37 9.93 36.90 10.26L36.90 10.26L36.90 10.26Q36.43 10.58 35.78 10.65L35.78 10.65L36.88 12.73L36.88 12.73Q36.99 12.95 37.13 13.03L37.13 13.03L37.13 13.03Q37.27 13.12 37.46 13.12L37.46 13.12L37.46 13.12Q37.65 13.12 37.84 13.02L37.84 13.02L37.84 13.02Q38.04 12.92 38.21 12.75L38.21 12.75L38.50 13.12L38.50 13.12Q37.86 14 37.00 14L37.00 14L37.00 14Q36.58 14 36.30 13.83L36.30 13.83L36.30 13.83Q36.01 13.66 35.81 13.37L35.81 13.37L35.81 13.37Q35.60 13.08 35.31 12.52L35.31 12.52L34.27 10.54ZM43.79 3.56L43.79 3.56Q44.70 3.56 45.42 3.81L45.42 3.81L45.42 3.81Q46.14 4.07 46.54 4.54L46.54 4.54L46.54 4.54Q46.94 5.01 46.94 5.61L46.94 5.61L46.94 5.61Q46.94 6.33 46.52 6.79L46.52 6.79L46.52 6.79Q46.09 7.25 45.44 7.25L45.44 7.25L45.44 7.25Q45.15 7.25 45.15 7.08L45.15 7.08L45.15 7.08Q45.15 7.04 45.27 6.85L45.27 6.85L45.27 6.85Q45.39 6.65 45.48 6.41L45.48 6.41L45.48 6.41Q45.57 6.16 45.57 5.81L45.57 5.81L45.57 5.81Q45.57 5.15 45.08 4.75L45.08 4.75L45.08 4.75Q44.59 4.34 43.79 4.34L43.79 4.34L43.79 4.34Q42.76 4.34 42.10 4.98L42.10 4.98L42.10 4.98Q41.44 5.63 41.15 6.64L41.15 6.64L41.15 6.64Q40.85 7.64 40.85 8.79L40.85 8.79L40.85 8.79Q40.85 9.97 41.22 10.93L41.22 10.93L41.22 10.93Q41.59 11.90 42.28 12.47L42.28 12.47L42.28 12.47Q42.97 13.03 43.88 13.03L43.88 13.03L43.88 13.03Q44.77 13.03 45.43 12.71L45.43 12.71L45.43 12.71Q46.09 12.38 46.51 11.77L46.51 11.77L46.51 11.77Q46.55 11.72 46.61 11.72L46.61 11.72L46.61 11.72Q46.73 11.72 46.89 11.85L46.89 11.85L46.89 11.85Q47.05 11.98 47.05 12.11L47.05 12.11L47.05 12.11Q47.05 12.15 47.01 12.22L47.01 12.22L47.01 12.22Q45.81 14 43.75 14L43.75 14L43.75 14Q42.29 14 41.29 13.31L41.29 13.31L41.29 13.31Q40.28 12.63 39.77 11.45L39.77 11.45L39.77 11.45Q39.27 10.26 39.27 8.79L39.27 8.79L39.27 8.79Q39.27 7.31 39.77 6.13L39.77 6.13L39.77 6.13Q40.28 4.94 41.29 4.25L41.29 4.25L41.29 4.25Q42.31 3.56 43.79 3.56L43.79 3.56ZM53.07 13.80L51.48 13.80L48.75 5.68L48.75 5.68Q48.54 5.04 48.27 4.70L48.27 4.70L48.27 4.70Q48.01 4.37 47.49 3.98L47.49 3.98L47.67 3.75L50.82 3.75L50.99 4.23L50.67 4.31L50.67 4.31Q50.33 4.40 50.18 4.54L50.18 4.54L50.18 4.54Q50.04 4.68 50.04 4.93L50.04 4.93L50.04 4.93Q50.04 5.15 50.19 5.61L50.19 5.61L52.47 12.64L54.43 6.55L54.43 6.55Q54.70 5.71 54.70 5.25L54.70 5.25L54.70 5.25Q54.67 4.48 54.07 4.31L54.07 4.31L53.75 4.23L53.91 3.75L56.57 3.75L56.76 3.98L56.55 4.23L56.55 4.23Q56.03 4.84 55.78 5.63L55.78 5.63L53.07 13.80Z"></path></g><!----><!----></svg>